# xmcd
# 
# Track frame offsets:
#     150
#     39659
#     69781
#     107575
#     148950
#     187124
#     223672
#     255400
# 
# Disc length: 3647
# 
# Revision: 1
# Processed by: cddbd v1.5.2PL0 Copyright (c) Steve Scherf et al.
# Submitted via: BonkEnc v1.0.6
# 
DISCID=750e3d08
DTITLE=Relaxation  - Un Invitation Au Bien-Etre - CD 2 - Journée  Zen
DYEAR=2007
DGENRE=New Age
TTITLE0=Quiet Life 
TTITLE1=Immermatern 3 
TTITLE2=Life Ways 
TTITLE3=Saona 
TTITLE4=Love In The Air
TTITLE5=My Endless Love 
TTITLE6=Les Amis De L'Enfance
TTITLE7=Cloud Of Mercy 
EXTD=YEAR: 2007
EXTT0=
EXTT1=
EXTT2=
EXTT3=
EXTT4=
EXTT5=
EXTT6=
EXTT7=
PLAYORDER=
